<svg width="38" height="38" viewBox="0 0 38 38" fill="none" xmlns="http://www.w3.org/2000/svg">
<g filter="url(#filter0_d_27_388)">
<path d="M16.1667 1.49988C8.50002 2.33321 2.33335 8.49988 1.50002 15.9999C0.666682 23.8332 5.16668 30.8332 12 33.4999C12.5 33.6665 13 33.3332 13 32.6665V29.9999C13 29.9999 12.3333 30.1665 11.5 30.1665C9.16668 30.1665 8.16668 28.1665 8.00002 26.9999C7.83335 26.3332 7.50002 25.8332 7.00002 25.3332C6.50002 25.1665 6.33335 25.1665 6.33335 24.9999C6.33335 24.6665 6.83335 24.6665 7.00002 24.6665C8.00002 24.6665 8.83335 25.8332 9.16668 26.3332C10 27.6665 11 27.9999 11.5 27.9999C12.1667 27.9999 12.6667 27.8332 13 27.6665C13.1667 26.4999 13.6667 25.3332 14.6667 24.6665C10.8333 23.8332 8.00002 21.6665 8.00002 17.9999C8.00002 16.1665 8.83335 14.3332 10 12.9999C9.83335 12.6665 9.66668 11.8332 9.66668 10.6665C9.66668 9.99988 9.66668 9.16655 10 8.49988C10 8.16655 10.3333 7.99988 10.5 7.99988H10.6667C11.5 8.16655 13.1667 8.66655 14.6667 10.1665C15.6667 9.83321 16.8333 9.66655 18 9.66655C19.1667 9.66655 20.3334 9.83321 21.3334 10.1665C22.8334 8.66655 24.6667 8.16655 25.5 7.99988H25.6667C26 7.99988 26.1667 8.16655 26.3334 8.49988C26.3334 9.16655 26.3334 9.99988 26.3334 10.6665C26.3334 11.9999 26.1667 12.6665 26 12.9999C27.1667 14.3332 28 15.9999 28 17.9999C28 21.6665 25.1667 23.8332 21.3334 24.6665C22.3334 25.4999 23 26.9999 23 28.4999V32.8332C23 33.3332 23.5 33.8332 24.1667 33.6665C30.3334 31.1665 34.6667 25.1665 34.6667 18.1665C34.6667 8.16655 26.1667 0.333214 16.1667 1.49988Z" fill="url(#paint0_linear_27_388)"/>
</g>
<defs>
<filter id="filter0_d_27_388" x="0.400879" y="0.384521" width="39.2657" height="38.3147" filterUnits="userSpaceOnUse" color-interpolation-filters="sRGB">
<feFlood flood-opacity="0" result="BackgroundImageFix"/>
<feColorMatrix in="SourceAlpha" type="matrix" values="0 0 0 0 0 0 0 0 0 0 0 0 0 0 0 0 0 0 127 0" result="hardAlpha"/>
<feOffset dx="2" dy="2"/>
<feGaussianBlur stdDeviation="1.5"/>
<feComposite in2="hardAlpha" operator="out"/>
<feColorMatrix type="matrix" values="0 0 0 0 0 0 0 0 0 0 0 0 0 0 0 0 0 0 0.1 0"/>
<feBlend mode="normal" in2="BackgroundImageFix" result="effect1_dropShadow_27_388"/>
<feBlend mode="normal" in="SourceGraphic" in2="effect1_dropShadow_27_388" result="shape"/>
</filter>
<linearGradient id="paint0_linear_27_388" x1="1.40088" y1="17.5418" x2="34.6667" y2="17.5418" gradientUnits="userSpaceOnUse">
<stop stop-color="#8693D4"/>
<stop offset="1" stop-color="#B1BBED"/>
</linearGradient>
</defs>
</svg>
