<svg width="30" height="30" viewBox="0 0 30 30" fill="none" xmlns="http://www.w3.org/2000/svg">
<path d="M25 0H5C2.23875 0 0 2.23875 0 5V25C0 27.7613 2.23875 30 5 30H25C27.7613 30 30 27.7613 30 25V5C30 2.23875 27.7613 0 25 0ZM10 24.375H6.875V11.875H10V24.375ZM10.0181 9.38063C9.61375 9.79313 9.08625 10 8.4375 10C7.79625 10 7.27188 9.78687 6.86313 9.36062C6.45438 8.93437 6.25 8.41125 6.25 7.7925C6.25 7.155 6.45438 6.635 6.86313 6.23125C7.27188 5.82687 7.79625 5.625 8.4375 5.625C9.08625 5.625 9.61375 5.82687 10.0181 6.23062C10.4225 6.63437 10.625 7.155 10.625 7.7925C10.625 8.43875 10.4225 8.96813 10.0181 9.38063ZM24.375 24.375H21.25V17.4294C21.25 15.4925 20.1337 14.375 18.75 14.375C18.0831 14.375 17.3287 14.78 16.8969 15.2931C16.465 15.8063 16.25 16.4569 16.25 17.2463V24.375H13.125V11.875H16.25V13.8525H16.2987C17.2187 12.3306 18.5569 11.575 20.315 11.57C22.8125 11.5625 24.375 13.4375 24.375 16.7213V24.375Z" fill="url(#paint0_linear_27_391)"/>
<defs>
<linearGradient id="paint0_linear_27_391" x1="0" y1="14.9999" x2="30" y2="14.9999" gradientUnits="userSpaceOnUse">
<stop stop-color="#8693D4"/>
<stop offset="1" stop-color="#B1BBED"/>
</linearGradient>
</defs>
</svg>
