<svg width="34" height="28" viewBox="0 0 34 28" fill="none" xmlns="http://www.w3.org/2000/svg">
<path d="M30.3334 0.666748H3.66671C1.83337 0.666748 0.350041 2.16675 0.350041 4.00008L0.333374 24.0001C0.333374 25.8334 1.83337 27.3334 3.66671 27.3334H30.3334C32.1667 27.3334 33.6667 25.8334 33.6667 24.0001V4.00008C33.6667 2.16675 32.1667 0.666748 30.3334 0.666748ZM29.6667 7.75008L17.8834 15.1167C17.35 15.4501 16.65 15.4501 16.1167 15.1167L4.33337 7.75008C3.91671 7.48341 3.66671 7.03341 3.66671 6.55008C3.66671 5.43341 4.88337 4.76675 5.83337 5.35008L17 12.3334L28.1667 5.35008C29.1167 4.76675 30.3334 5.43341 30.3334 6.55008C30.3334 7.03341 30.0834 7.48341 29.6667 7.75008Z" fill="url(#paint0_linear_27_384)"/>
<defs>
<linearGradient id="paint0_linear_27_384" x1="0.333374" y1="14" x2="33.6667" y2="14" gradientUnits="userSpaceOnUse">
<stop stop-color="#8693D4"/>
<stop offset="1" stop-color="#B1BBED"/>
</linearGradient>
</defs>
</svg>
