<svg id="glauber-svg" width="288" height="32" viewBox="0 0 288 32" fill="none" xmlns="http://www.w3.org/2000/svg">
            <title>Glauber</title>
            <style>
              #glauber-svg path{
                fill: #FAFAFA;
              }
              #glauber-svg path.svg-g {
                fill: #FAFAFA;
                transition: fill .3s ease;
              }
            
               #glauber-svg:hover path.svg-g {
                fill: #8693D4;
              }
            </style>
            <path class="svg-g" d="M14.544 31.536C12.504 31.536 10.602 31.146 8.838 30.366C7.074 29.586 5.532 28.5 4.212 27.108C2.892 25.704 1.86 24.066 1.116 22.194C0.372 20.322 0 18.294 0 16.11C0 14.022 0.348 12.054 1.044 10.206C1.74 8.346 2.742 6.708 4.05 5.292C5.358 3.864 6.936 2.748 8.784 1.944C10.632 1.128 12.702 0.719999 14.994 0.719999C16.29 0.719999 17.592 0.863999 18.9 1.152C20.22 1.44 21.486 1.866 22.698 2.43C23.91 2.982 25.002 3.66 25.974 4.464L23.238 8.982C22.194 8.01 20.928 7.26 19.44 6.732C17.964 6.192 16.506 5.922 15.066 5.922C13.65 5.922 12.396 6.174 11.304 6.678C10.224 7.17 9.312 7.866 8.568 8.766C7.824 9.666 7.26 10.722 6.876 11.934C6.492 13.134 6.3 14.442 6.3 15.858C6.3 17.406 6.516 18.81 6.948 20.07C7.38 21.33 7.98 22.416 8.748 23.328C9.528 24.24 10.434 24.942 11.466 25.434C12.51 25.926 13.632 26.172 14.832 26.172C15.792 26.172 16.716 26.016 17.604 25.704C18.504 25.38 19.302 24.93 19.998 24.354C20.694 23.778 21.246 23.1 21.654 22.32C22.062 21.54 22.266 20.688 22.266 19.764V19.314H14.472V14.796H28.206V19.296C28.206 21.108 27.828 22.764 27.072 24.264C26.328 25.752 25.308 27.042 24.012 28.134C22.716 29.214 21.252 30.054 19.62 30.654C17.988 31.242 16.296 31.536 14.544 31.536Z" fill="#FAFAFA"/>
            <path d="M33.289 30.96V0H38.815V30.96H33.289Z" fill="#FAFAFA"/>
            <path d="M52.9985 31.536C51.3065 31.536 49.7645 31.116 48.3725 30.276C46.9925 29.424 45.8945 28.26 45.0785 26.784C44.2745 25.296 43.8725 23.604 43.8725 21.708C43.8725 19.86 44.2625 18.204 45.0425 16.74C45.8225 15.264 46.8965 14.1 48.2645 13.248C49.6445 12.384 51.2225 11.952 52.9985 11.952C54.3065 11.952 55.5245 12.204 56.6525 12.708C57.7925 13.2 58.7225 13.89 59.4425 14.778V12.528H64.9685V30.96H59.4425V28.53C58.6025 29.502 57.6365 30.246 56.5445 30.762C55.4525 31.278 54.2705 31.536 52.9985 31.536ZM54.6365 26.838C55.5965 26.838 56.4485 26.622 57.1925 26.19C57.9365 25.746 58.5185 25.14 58.9385 24.372C59.3585 23.604 59.5685 22.728 59.5685 21.744C59.5685 20.748 59.3525 19.872 58.9205 19.116C58.5005 18.348 57.9185 17.748 57.1745 17.316C56.4425 16.872 55.5965 16.65 54.6365 16.65C53.6885 16.65 52.8425 16.872 52.0985 17.316C51.3545 17.748 50.7665 18.348 50.3345 19.116C49.9025 19.884 49.6865 20.76 49.6865 21.744C49.6865 22.728 49.8965 23.604 50.3165 24.372C50.7485 25.14 51.3365 25.746 52.0805 26.19C52.8245 26.622 53.6765 26.838 54.6365 26.838Z" fill="#FAFAFA"/>
            <path d="M80.5047 31.536C77.1447 31.536 74.7207 30.87 73.2327 29.538C71.7447 28.206 71.0007 26.028 71.0007 23.004V12.528H76.5267V21.708C76.5267 23.652 76.8267 25.026 77.4267 25.83C78.0387 26.634 79.0647 27.036 80.5047 27.036C81.9687 27.036 82.9947 26.634 83.5827 25.83C84.1827 25.026 84.4827 23.652 84.4827 21.708V12.528H90.0087V23.004C90.0087 26.028 89.2647 28.206 87.7767 29.538C86.3007 30.87 83.8767 31.536 80.5047 31.536Z" fill="#FAFAFA"/>
            <path d="M108.084 31.536C106.812 31.536 105.618 31.272 104.502 30.744C103.386 30.216 102.42 29.478 101.604 28.53V30.96H96.0781V0H101.604V14.778C102.336 13.89 103.254 13.2 104.358 12.708C105.462 12.204 106.656 11.952 107.94 11.952C109.716 11.952 111.3 12.384 112.692 13.248C114.084 14.1 115.176 15.264 115.968 16.74C116.76 18.204 117.156 19.872 117.156 21.744C117.156 23.652 116.748 25.344 115.932 26.82C115.116 28.296 114.018 29.454 112.638 30.294C111.27 31.122 109.752 31.536 108.084 31.536ZM106.428 26.838C107.4 26.838 108.252 26.622 108.984 26.19C109.716 25.746 110.292 25.146 110.712 24.39C111.132 23.622 111.342 22.752 111.342 21.78C111.342 20.796 111.126 19.92 110.694 19.152C110.262 18.372 109.68 17.76 108.948 17.316C108.216 16.872 107.376 16.65 106.428 16.65C105.48 16.65 104.628 16.872 103.872 17.316C103.128 17.76 102.54 18.366 102.108 19.134C101.676 19.902 101.46 20.784 101.46 21.78C101.46 22.752 101.67 23.622 102.09 24.39C102.522 25.146 103.11 25.746 103.854 26.19C104.61 26.622 105.468 26.838 106.428 26.838Z" fill="#FAFAFA"/>
            <path d="M131.09 31.536C129.098 31.536 127.31 31.11 125.726 30.258C124.154 29.394 122.906 28.224 121.982 26.748C121.058 25.272 120.596 23.604 120.596 21.744C120.596 20.376 120.854 19.098 121.37 17.91C121.898 16.722 122.63 15.684 123.566 14.796C124.502 13.896 125.588 13.2 126.824 12.708C128.06 12.204 129.398 11.952 130.838 11.952C132.758 11.952 134.438 12.354 135.878 13.158C137.33 13.95 138.458 15.054 139.262 16.47C140.078 17.886 140.486 19.536 140.486 21.42C140.486 21.576 140.48 21.714 140.468 21.834C140.468 21.942 140.45 22.152 140.414 22.464H126.284C126.284 23.4 126.494 24.216 126.914 24.912C127.346 25.608 127.946 26.154 128.714 26.55C129.482 26.934 130.376 27.126 131.396 27.126C132.356 27.126 133.202 26.94 133.934 26.568C134.678 26.196 135.392 25.602 136.076 24.786L140.054 26.784C139.19 28.272 137.966 29.436 136.382 30.276C134.798 31.116 133.034 31.536 131.09 31.536ZM126.482 19.404H135.05C134.93 18.696 134.672 18.084 134.276 17.568C133.892 17.052 133.4 16.656 132.8 16.38C132.2 16.104 131.522 15.966 130.766 15.966C129.962 15.966 129.254 16.104 128.642 16.38C128.03 16.656 127.538 17.052 127.166 17.568C126.794 18.084 126.566 18.696 126.482 19.404Z" fill="#FAFAFA"/>
            <path d="M145.402 30.96V12.528H150.928V15.174C151.612 14.142 152.446 13.35 153.43 12.798C154.426 12.234 155.494 11.952 156.634 11.952C157.282 11.952 157.954 12.048 158.65 12.24C159.346 12.432 159.928 12.678 160.396 12.978L158.092 17.64C157.684 17.364 157.204 17.148 156.652 16.992C156.112 16.824 155.608 16.74 155.14 16.74C154.42 16.74 153.736 16.926 153.088 17.298C152.44 17.67 151.918 18.156 151.522 18.756C151.126 19.344 150.928 19.98 150.928 20.664V30.96H145.402Z" fill="#FAFAFA"/>
            <path class="svg-g" d="M181.005 31.536C179.625 31.536 178.353 31.38 177.189 31.068C176.025 30.768 174.981 30.39 174.057 29.934C173.145 29.466 172.359 28.986 171.699 28.494C171.039 28.002 170.517 27.57 170.133 27.198L173.121 22.374C173.517 22.722 173.991 23.112 174.543 23.544C175.095 23.976 175.713 24.39 176.397 24.786C177.081 25.17 177.819 25.494 178.611 25.758C179.415 26.01 180.267 26.136 181.167 26.136C182.007 26.136 182.745 26.004 183.381 25.74C184.029 25.476 184.539 25.086 184.911 24.57C185.283 24.042 185.469 23.388 185.469 22.608C185.469 21.9 185.319 21.3 185.019 20.808C184.719 20.304 184.275 19.854 183.687 19.458C183.111 19.05 182.397 18.654 181.545 18.27C180.705 17.874 179.745 17.442 178.665 16.974C177.861 16.614 177.093 16.206 176.361 15.75C175.641 15.282 174.999 14.742 174.435 14.13C173.871 13.518 173.421 12.828 173.085 12.06C172.761 11.28 172.599 10.41 172.599 9.45C172.599 8.31 172.827 7.218 173.283 6.174C173.739 5.13 174.387 4.2 175.227 3.384C176.079 2.568 177.087 1.92 178.251 1.44C179.427 0.959999 180.735 0.719999 182.175 0.719999C183.255 0.719999 184.335 0.863999 185.415 1.152C186.495 1.44 187.503 1.818 188.439 2.286C189.375 2.754 190.167 3.264 190.815 3.816L188.385 8.388C187.869 7.944 187.281 7.548 186.621 7.2C185.973 6.84 185.277 6.552 184.533 6.336C183.801 6.12 183.057 6.012 182.301 6.012C181.449 6.012 180.723 6.162 180.123 6.462C179.535 6.762 179.079 7.164 178.755 7.668C178.443 8.16 178.287 8.712 178.287 9.324C178.287 9.828 178.389 10.26 178.593 10.62C178.809 10.968 179.109 11.274 179.493 11.538C179.877 11.79 180.339 12.036 180.879 12.276C181.419 12.504 182.013 12.75 182.661 13.014C184.053 13.602 185.313 14.184 186.441 14.76C187.569 15.336 188.535 15.978 189.339 16.686C190.143 17.382 190.755 18.198 191.175 19.134C191.607 20.07 191.823 21.186 191.823 22.482C191.823 24.378 191.367 26.004 190.455 27.36C189.555 28.716 188.295 29.754 186.675 30.474C185.055 31.182 183.165 31.536 181.005 31.536Z" fill="#FAFAFA"/>
            <path d="M206.192 31.536C204.164 31.536 202.334 31.122 200.702 30.294C199.07 29.454 197.774 28.302 196.814 26.838C195.854 25.362 195.374 23.664 195.374 21.744C195.374 19.824 195.848 18.132 196.796 16.668C197.756 15.192 199.052 14.04 200.684 13.212C202.328 12.372 204.164 11.952 206.192 11.952C208.232 11.952 210.068 12.372 211.7 13.212C213.332 14.04 214.622 15.192 215.57 16.668C216.53 18.132 217.01 19.824 217.01 21.744C217.01 23.664 216.53 25.362 215.57 26.838C214.622 28.302 213.332 29.454 211.7 30.294C210.068 31.122 208.232 31.536 206.192 31.536ZM206.21 26.82C207.146 26.82 207.998 26.604 208.766 26.172C209.534 25.74 210.14 25.146 210.584 24.39C211.028 23.622 211.25 22.74 211.25 21.744C211.25 20.748 211.028 19.872 210.584 19.116C210.14 18.348 209.534 17.748 208.766 17.316C207.998 16.884 207.146 16.668 206.21 16.668C205.262 16.668 204.404 16.884 203.636 17.316C202.88 17.748 202.28 18.348 201.836 19.116C201.392 19.872 201.17 20.748 201.17 21.744C201.17 22.74 201.392 23.622 201.836 24.39C202.28 25.146 202.88 25.74 203.636 26.172C204.404 26.604 205.262 26.82 206.21 26.82Z" fill="#FAFAFA"/>
            <path d="M230.938 31.536C227.578 31.536 225.154 30.87 223.666 29.538C222.178 28.206 221.434 26.028 221.434 23.004V12.528H226.96V21.708C226.96 23.652 227.26 25.026 227.86 25.83C228.472 26.634 229.498 27.036 230.938 27.036C232.402 27.036 233.428 26.634 234.016 25.83C234.616 25.026 234.916 23.652 234.916 21.708V12.528H240.442V23.004C240.442 26.028 239.698 28.206 238.21 29.538C236.734 30.87 234.31 31.536 230.938 31.536Z" fill="#FAFAFA"/>
            <path d="M244.01 30.96L254.198 16.74H245.504V12.528H263.504L253.316 26.748H262.874V30.96H244.01Z" fill="#FAFAFA"/>
            <path d="M275.573 31.536C273.881 31.536 272.339 31.116 270.947 30.276C269.567 29.424 268.469 28.26 267.653 26.784C266.849 25.296 266.447 23.604 266.447 21.708C266.447 19.86 266.837 18.204 267.617 16.74C268.397 15.264 269.471 14.1 270.839 13.248C272.219 12.384 273.797 11.952 275.573 11.952C276.881 11.952 278.099 12.204 279.227 12.708C280.367 13.2 281.297 13.89 282.017 14.778V12.528H287.543V30.96H282.017V28.53C281.177 29.502 280.211 30.246 279.119 30.762C278.027 31.278 276.845 31.536 275.573 31.536ZM277.211 26.838C278.171 26.838 279.023 26.622 279.767 26.19C280.511 25.746 281.093 25.14 281.513 24.372C281.933 23.604 282.143 22.728 282.143 21.744C282.143 20.748 281.927 19.872 281.495 19.116C281.075 18.348 280.493 17.748 279.749 17.316C279.017 16.872 278.171 16.65 277.211 16.65C276.263 16.65 275.417 16.872 274.673 17.316C273.929 17.748 273.341 18.348 272.909 19.116C272.477 19.884 272.261 20.76 272.261 21.744C272.261 22.728 272.471 23.604 272.891 24.372C273.323 25.14 273.911 25.746 274.655 26.19C275.399 26.622 276.251 26.838 277.211 26.838Z" fill="#FAFAFA"/>
            </svg>