<svg id="glauber-svg" width="289" height="32" viewBox="0 0 289 32" fill="none" xmlns="http://www.w3.org/2000/svg">
<title>Glauber</title>
<style>
            #glauber-svg path{
              fill: #160A0B;
            }
            #glauber-svg path.svg-g {
              fill: #160A0B;
              transition: fill .3s ease;
            }
          
             #glauber-svg:hover path.svg-g {
              fill: #8F7F80
              ;
            }
          </style>
<path class="svg-g" d="M15.47 31.576C13.43 31.576 11.528 31.186 9.76403 30.406C8.00003 29.626 6.45803 28.54 5.13803 27.148C3.81803 25.744 2.78603 24.106 2.04203 22.234C1.29803 20.362 0.926025 18.334 0.926025 16.15C0.926025 14.062 1.27403 12.094 1.97003 10.246C2.66603 8.38598 3.66803 6.74798 4.97603 5.33198C6.28403 3.90398 7.86203 2.78798 9.71003 1.98398C11.558 1.16798 13.628 0.759977 15.92 0.759977C17.216 0.759977 18.518 0.903977 19.826 1.19198C21.146 1.47998 22.412 1.90598 23.624 2.46998C24.836 3.02198 25.928 3.69998 26.9 4.50398L24.164 9.02198C23.12 8.04998 21.854 7.29998 20.366 6.77198C18.89 6.23198 17.432 5.96198 15.992 5.96198C14.576 5.96198 13.322 6.21398 12.23 6.71798C11.15 7.20998 10.238 7.90598 9.49403 8.80598C8.75003 9.70598 8.18603 10.762 7.80203 11.974C7.41803 13.174 7.22603 14.482 7.22603 15.898C7.22603 17.446 7.44203 18.85 7.87403 20.11C8.30603 21.37 8.90603 22.456 9.67403 23.368C10.454 24.28 11.36 24.982 12.392 25.474C13.436 25.966 14.558 26.212 15.758 26.212C16.718 26.212 17.642 26.056 18.53 25.744C19.43 25.42 20.228 24.97 20.924 24.394C21.62 23.818 22.172 23.14 22.58 22.36C22.988 21.58 23.192 20.728 23.192 19.804V19.354H15.398V14.836H29.132V19.336C29.132 21.148 28.754 22.804 27.998 24.304C27.254 25.792 26.234 27.082 24.938 28.174C23.642 29.254 22.178 30.094 20.546 30.694C18.914 31.282 17.222 31.576 15.47 31.576Z" fill="#160A0B"/>
<path d="M34.2151 31V0.039978H39.7411V31H34.2151Z" fill="#160A0B"/>
<path d="M53.9245 31.576C52.2325 31.576 50.6905 31.156 49.2985 30.316C47.9185 29.464 46.8205 28.3 46.0045 26.824C45.2005 25.336 44.7985 23.644 44.7985 21.748C44.7985 19.9 45.1885 18.244 45.9685 16.78C46.7485 15.304 47.8225 14.14 49.1905 13.288C50.5705 12.424 52.1485 11.992 53.9245 11.992C55.2325 11.992 56.4505 12.244 57.5785 12.748C58.7185 13.24 59.6485 13.93 60.3685 14.818V12.568H65.8945V31H60.3685V28.57C59.5285 29.542 58.5625 30.286 57.4705 30.802C56.3785 31.318 55.1965 31.576 53.9245 31.576ZM55.5625 26.878C56.5225 26.878 57.3745 26.662 58.1185 26.23C58.8625 25.786 59.4445 25.18 59.8645 24.412C60.2845 23.644 60.4945 22.768 60.4945 21.784C60.4945 20.788 60.2785 19.912 59.8465 19.156C59.4265 18.388 58.8445 17.788 58.1005 17.356C57.3685 16.912 56.5225 16.69 55.5625 16.69C54.6145 16.69 53.7685 16.912 53.0245 17.356C52.2805 17.788 51.6925 18.388 51.2605 19.156C50.8285 19.924 50.6125 20.8 50.6125 21.784C50.6125 22.768 50.8225 23.644 51.2425 24.412C51.6745 25.18 52.2625 25.786 53.0065 26.23C53.7505 26.662 54.6025 26.878 55.5625 26.878Z" fill="#160A0B"/>
<path d="M81.4307 31.576C78.0707 31.576 75.6467 30.91 74.1587 29.578C72.6707 28.246 71.9267 26.068 71.9267 23.044V12.568H77.4527V21.748C77.4527 23.692 77.7527 25.066 78.3527 25.87C78.9647 26.674 79.9907 27.076 81.4307 27.076C82.8947 27.076 83.9207 26.674 84.5087 25.87C85.1087 25.066 85.4087 23.692 85.4087 21.748V12.568H90.9347V23.044C90.9347 26.068 90.1907 28.246 88.7027 29.578C87.2267 30.91 84.8027 31.576 81.4307 31.576Z" fill="#160A0B"/>
<path d="M109.01 31.576C107.738 31.576 106.544 31.312 105.428 30.784C104.312 30.256 103.346 29.518 102.53 28.57V31H97.0041V0.039978H102.53V14.818C103.262 13.93 104.18 13.24 105.284 12.748C106.388 12.244 107.582 11.992 108.866 11.992C110.642 11.992 112.226 12.424 113.618 13.288C115.01 14.14 116.102 15.304 116.894 16.78C117.686 18.244 118.082 19.912 118.082 21.784C118.082 23.692 117.674 25.384 116.858 26.86C116.042 28.336 114.944 29.494 113.564 30.334C112.196 31.162 110.678 31.576 109.01 31.576ZM107.354 26.878C108.326 26.878 109.178 26.662 109.91 26.23C110.642 25.786 111.218 25.186 111.638 24.43C112.058 23.662 112.268 22.792 112.268 21.82C112.268 20.836 112.052 19.96 111.62 19.192C111.188 18.412 110.606 17.8 109.874 17.356C109.142 16.912 108.302 16.69 107.354 16.69C106.406 16.69 105.554 16.912 104.798 17.356C104.054 17.8 103.466 18.406 103.034 19.174C102.602 19.942 102.386 20.824 102.386 21.82C102.386 22.792 102.596 23.662 103.016 24.43C103.448 25.186 104.036 25.786 104.78 26.23C105.536 26.662 106.394 26.878 107.354 26.878Z" fill="#160A0B"/>
<path d="M132.016 31.576C130.024 31.576 128.236 31.15 126.652 30.298C125.08 29.434 123.832 28.264 122.908 26.788C121.984 25.312 121.522 23.644 121.522 21.784C121.522 20.416 121.78 19.138 122.296 17.95C122.824 16.762 123.556 15.724 124.492 14.836C125.428 13.936 126.514 13.24 127.75 12.748C128.986 12.244 130.324 11.992 131.764 11.992C133.684 11.992 135.364 12.394 136.804 13.198C138.256 13.99 139.384 15.094 140.188 16.51C141.004 17.926 141.412 19.576 141.412 21.46C141.412 21.616 141.406 21.754 141.394 21.874C141.394 21.982 141.376 22.192 141.34 22.504H127.21C127.21 23.44 127.42 24.256 127.84 24.952C128.272 25.648 128.872 26.194 129.64 26.59C130.408 26.974 131.302 27.166 132.322 27.166C133.282 27.166 134.128 26.98 134.86 26.608C135.604 26.236 136.318 25.642 137.002 24.826L140.98 26.824C140.116 28.312 138.892 29.476 137.308 30.316C135.724 31.156 133.96 31.576 132.016 31.576ZM127.408 19.444H135.976C135.856 18.736 135.598 18.124 135.202 17.608C134.818 17.092 134.326 16.696 133.726 16.42C133.126 16.144 132.448 16.006 131.692 16.006C130.888 16.006 130.18 16.144 129.568 16.42C128.956 16.696 128.464 17.092 128.092 17.608C127.72 18.124 127.492 18.736 127.408 19.444Z" fill="#160A0B"/>
<path d="M146.328 31V12.568H151.854V15.214C152.538 14.182 153.372 13.39 154.356 12.838C155.352 12.274 156.42 11.992 157.56 11.992C158.208 11.992 158.88 12.088 159.576 12.28C160.272 12.472 160.854 12.718 161.322 13.018L159.018 17.68C158.61 17.404 158.13 17.188 157.578 17.032C157.038 16.864 156.534 16.78 156.066 16.78C155.346 16.78 154.662 16.966 154.014 17.338C153.366 17.71 152.844 18.196 152.448 18.796C152.052 19.384 151.854 20.02 151.854 20.704V31H146.328Z" fill="#160A0B"/>
<path d="M181.931 31.576C180.551 31.576 179.279 31.42 178.115 31.108C176.951 30.808 175.907 30.43 174.983 29.974C174.071 29.506 173.285 29.026 172.625 28.534C171.965 28.042 171.443 27.61 171.059 27.238L174.047 22.414C174.443 22.762 174.917 23.152 175.469 23.584C176.021 24.016 176.639 24.43 177.323 24.826C178.007 25.21 178.745 25.534 179.537 25.798C180.341 26.05 181.193 26.176 182.093 26.176C182.933 26.176 183.671 26.044 184.307 25.78C184.955 25.516 185.465 25.126 185.837 24.61C186.209 24.082 186.395 23.428 186.395 22.648C186.395 21.94 186.245 21.34 185.945 20.848C185.645 20.344 185.201 19.894 184.613 19.498C184.037 19.09 183.323 18.694 182.471 18.31C181.631 17.914 180.671 17.482 179.591 17.014C178.787 16.654 178.019 16.246 177.287 15.79C176.567 15.322 175.925 14.782 175.361 14.17C174.797 13.558 174.347 12.868 174.011 12.1C173.687 11.32 173.525 10.45 173.525 9.48998C173.525 8.34998 173.753 7.25798 174.209 6.21398C174.665 5.16998 175.313 4.23998 176.153 3.42398C177.005 2.60798 178.013 1.95998 179.177 1.47998C180.353 0.999977 181.661 0.759977 183.101 0.759977C184.181 0.759977 185.261 0.903977 186.341 1.19198C187.421 1.47998 188.429 1.85798 189.365 2.32598C190.301 2.79398 191.093 3.30398 191.741 3.85598L189.311 8.42798C188.795 7.98398 188.207 7.58798 187.547 7.23998C186.899 6.87998 186.203 6.59198 185.459 6.37598C184.727 6.15998 183.983 6.05198 183.227 6.05198C182.375 6.05198 181.649 6.20198 181.049 6.50198C180.461 6.80198 180.005 7.20398 179.681 7.70798C179.369 8.19998 179.213 8.75198 179.213 9.36398C179.213 9.86798 179.315 10.3 179.519 10.66C179.735 11.008 180.035 11.314 180.419 11.578C180.803 11.83 181.265 12.076 181.805 12.316C182.345 12.544 182.939 12.79 183.587 13.054C184.979 13.642 186.239 14.224 187.367 14.8C188.495 15.376 189.461 16.018 190.265 16.726C191.069 17.422 191.681 18.238 192.101 19.174C192.533 20.11 192.749 21.226 192.749 22.522C192.749 24.418 192.293 26.044 191.381 27.4C190.481 28.756 189.221 29.794 187.601 30.514C185.981 31.222 184.091 31.576 181.931 31.576Z" fill="#160A0B"/>
<path d="M207.118 31.576C205.09 31.576 203.26 31.162 201.628 30.334C199.996 29.494 198.7 28.342 197.74 26.878C196.78 25.402 196.3 23.704 196.3 21.784C196.3 19.864 196.774 18.172 197.722 16.708C198.682 15.232 199.978 14.08 201.61 13.252C203.254 12.412 205.09 11.992 207.118 11.992C209.158 11.992 210.994 12.412 212.626 13.252C214.258 14.08 215.548 15.232 216.496 16.708C217.456 18.172 217.936 19.864 217.936 21.784C217.936 23.704 217.456 25.402 216.496 26.878C215.548 28.342 214.258 29.494 212.626 30.334C210.994 31.162 209.158 31.576 207.118 31.576ZM207.136 26.86C208.072 26.86 208.924 26.644 209.692 26.212C210.46 25.78 211.066 25.186 211.51 24.43C211.954 23.662 212.176 22.78 212.176 21.784C212.176 20.788 211.954 19.912 211.51 19.156C211.066 18.388 210.46 17.788 209.692 17.356C208.924 16.924 208.072 16.708 207.136 16.708C206.188 16.708 205.33 16.924 204.562 17.356C203.806 17.788 203.206 18.388 202.762 19.156C202.318 19.912 202.096 20.788 202.096 21.784C202.096 22.78 202.318 23.662 202.762 24.43C203.206 25.186 203.806 25.78 204.562 26.212C205.33 26.644 206.188 26.86 207.136 26.86Z" fill="#160A0B"/>
<path d="M231.864 31.576C228.504 31.576 226.08 30.91 224.592 29.578C223.104 28.246 222.36 26.068 222.36 23.044V12.568H227.886V21.748C227.886 23.692 228.186 25.066 228.786 25.87C229.398 26.674 230.424 27.076 231.864 27.076C233.328 27.076 234.354 26.674 234.942 25.87C235.542 25.066 235.842 23.692 235.842 21.748V12.568H241.368V23.044C241.368 26.068 240.624 28.246 239.136 29.578C237.66 30.91 235.236 31.576 231.864 31.576Z" fill="#160A0B"/>
<path d="M244.936 31L255.124 16.78H246.43V12.568H264.43L254.242 26.788H263.8V31H244.936Z" fill="#160A0B"/>
<path d="M276.499 31.576C274.807 31.576 273.265 31.156 271.873 30.316C270.493 29.464 269.395 28.3 268.579 26.824C267.775 25.336 267.373 23.644 267.373 21.748C267.373 19.9 267.763 18.244 268.543 16.78C269.323 15.304 270.397 14.14 271.765 13.288C273.145 12.424 274.723 11.992 276.499 11.992C277.807 11.992 279.025 12.244 280.153 12.748C281.293 13.24 282.223 13.93 282.943 14.818V12.568H288.469V31H282.943V28.57C282.103 29.542 281.137 30.286 280.045 30.802C278.953 31.318 277.771 31.576 276.499 31.576ZM278.137 26.878C279.097 26.878 279.949 26.662 280.693 26.23C281.437 25.786 282.019 25.18 282.439 24.412C282.859 23.644 283.069 22.768 283.069 21.784C283.069 20.788 282.853 19.912 282.421 19.156C282.001 18.388 281.419 17.788 280.675 17.356C279.943 16.912 279.097 16.69 278.137 16.69C277.189 16.69 276.343 16.912 275.599 17.356C274.855 17.788 274.267 18.388 273.835 19.156C273.403 19.924 273.187 20.8 273.187 21.784C273.187 22.768 273.397 23.644 273.817 24.412C274.249 25.18 274.837 25.786 275.581 26.23C276.325 26.662 277.177 26.878 278.137 26.878Z" fill="#160A0B"/>
</svg>
