<svg width="24" height="25" viewBox="0 0 24 25" fill="none" xmlns="http://www.w3.org/2000/svg">
<path d="M4.9075 13.0674V15.8704C4.9075 16.5985 5.3075 17.2768 5.9475 17.626L10.9475 20.3492C11.5475 20.6783 12.2675 20.6783 12.8675 20.3492L17.8675 17.626C18.5075 17.2768 18.9075 16.5985 18.9075 15.8704V13.0674L12.8675 16.3591C12.2675 16.6883 11.5475 16.6883 10.9475 16.3591L4.9075 13.0674ZM10.9475 3.43145L2.5175 8.01998C1.8275 8.39903 1.8275 9.39654 2.5175 9.77559L10.9475 14.3641C11.5475 14.6933 12.2675 14.6933 12.8675 14.3641L20.9075 9.98507V15.8803C20.9075 16.429 21.3575 16.8778 21.9075 16.8778C22.4575 16.8778 22.9075 16.429 22.9075 15.8803V9.48631C22.9075 9.11723 22.7075 8.78806 22.3875 8.60851L12.8675 3.43145C12.2675 3.11225 11.5475 3.11225 10.9475 3.43145V3.43145Z" fill="url(#paint0_linear_17_28)"/>
<defs>
<linearGradient id="paint0_linear_17_28" x1="12.4537" y1="3.19205" x2="12.4537" y2="20.596" gradientUnits="userSpaceOnUse">
<stop stop-color="#160A0B"/>
<stop offset="1" stop-color="#614B4C"/>
</linearGradient>
</defs>
</svg>
