<svg width="40" height="40" viewBox="0 0 40 40" fill="none" xmlns="http://www.w3.org/2000/svg">
<path d="M18.1667 3.49988C10.5 4.33321 4.33335 10.4999 3.50002 17.9999C2.66668 25.8332 7.16668 32.8332 14 35.4999C14.5 35.6665 15 35.3332 15 34.6665V31.9999C15 31.9999 14.3333 32.1665 13.5 32.1665C11.1667 32.1665 10.1667 30.1665 10 28.9999C9.83335 28.3332 9.50002 27.8332 9.00002 27.3332C8.50002 27.1665 8.33335 27.1665 8.33335 26.9999C8.33335 26.6665 8.83335 26.6665 9.00002 26.6665C10 26.6665 10.8333 27.8332 11.1667 28.3332C12 29.6665 13 29.9999 13.5 29.9999C14.1667 29.9999 14.6667 29.8332 15 29.6665C15.1667 28.4999 15.6667 27.3332 16.6667 26.6665C12.8333 25.8332 10 23.6665 10 19.9999C10 18.1665 10.8333 16.3332 12 14.9999C11.8333 14.6665 11.6667 13.8332 11.6667 12.6665C11.6667 11.9999 11.6667 11.1665 12 10.4999C12 10.1665 12.3333 9.99988 12.5 9.99988H12.6667C13.5 10.1665 15.1667 10.6665 16.6667 12.1665C17.6667 11.8332 18.8334 11.6665 20 11.6665C21.1667 11.6665 22.3333 11.8332 23.3333 12.1665C24.8334 10.6665 26.6667 10.1665 27.5 9.99988H27.6667C28 9.99988 28.1667 10.1665 28.3334 10.4999C28.3334 11.1665 28.3334 11.9999 28.3334 12.6665C28.3334 13.9999 28.1667 14.6665 28 14.9999C29.1667 16.3332 30 17.9999 30 19.9999C30 23.6665 27.1667 25.8332 23.3333 26.6665C24.3334 27.4999 25 28.9999 25 30.4999V34.8332C25 35.3332 25.5 35.8332 26.1667 35.6665C32.3334 33.1665 36.6667 27.1665 36.6667 20.1665C36.6667 10.1665 28.1667 2.33321 18.1667 3.49988Z" fill="url(#paint0_linear_27_387)"/>
<defs>
<linearGradient id="paint0_linear_27_387" x1="3.40088" y1="19.5418" x2="36.6667" y2="19.5418" gradientUnits="userSpaceOnUse">
<stop stop-color="#8693D4"/>
<stop offset="1" stop-color="#B1BBED"/>
</linearGradient>
</defs>
</svg>
