<svg width="34" height="33" viewBox="0 0 34 33" fill="none" xmlns="http://www.w3.org/2000/svg">
<path d="M15.1667 0.49988C7.50002 1.33321 1.33335 7.49988 0.500015 14.9999C-0.333318 22.8332 4.16668 29.8332 11 32.4999C11.5 32.6665 12 32.3332 12 31.6665V28.9999C12 28.9999 11.3333 29.1665 10.5 29.1665C8.16668 29.1665 7.16668 27.1665 7.00002 25.9999C6.83335 25.3332 6.50002 24.8332 6.00002 24.3332C5.50002 24.1665 5.33335 24.1665 5.33335 23.9999C5.33335 23.6665 5.83335 23.6665 6.00002 23.6665C7.00002 23.6665 7.83335 24.8332 8.16668 25.3332C9.00002 26.6665 10 26.9999 10.5 26.9999C11.1667 26.9999 11.6667 26.8332 12 26.6665C12.1667 25.4999 12.6667 24.3332 13.6667 23.6665C9.83335 22.8332 7.00002 20.6665 7.00002 16.9999C7.00002 15.1665 7.83335 13.3332 9.00002 11.9999C8.83335 11.6665 8.66668 10.8332 8.66668 9.66655C8.66668 8.99988 8.66668 8.16655 9.00002 7.49988C9.00002 7.16655 9.33335 6.99988 9.50002 6.99988H9.66668C10.5 7.16655 12.1667 7.66655 13.6667 9.16655C14.6667 8.83321 15.8333 8.66655 17 8.66655C18.1667 8.66655 19.3334 8.83321 20.3334 9.16655C21.8334 7.66655 23.6667 7.16655 24.5 6.99988H24.6667C25 6.99988 25.1667 7.16655 25.3334 7.49988C25.3334 8.16655 25.3334 8.99988 25.3334 9.66655C25.3334 10.9999 25.1667 11.6665 25 11.9999C26.1667 13.3332 27 14.9999 27 16.9999C27 20.6665 24.1667 22.8332 20.3334 23.6665C21.3334 24.4999 22 25.9999 22 27.4999V31.8332C22 32.3332 22.5 32.8332 23.1667 32.6665C29.3334 30.1665 33.6667 24.1665 33.6667 17.1665C33.6667 7.16655 25.1667 -0.666786 15.1667 0.49988Z" fill="url(#paint0_linear_27_388)"/>
<defs>
<linearGradient id="paint0_linear_27_388" x1="0.400879" y1="16.5418" x2="33.6667" y2="16.5418" gradientUnits="userSpaceOnUse">
<stop stop-color="#8693D4"/>
<stop offset="1" stop-color="#B1BBED"/>
</linearGradient>
</defs>
</svg>
