<svg width="40" height="40" viewBox="0 0 40 40" fill="none" xmlns="http://www.w3.org/2000/svg">
<path d="M30 5H10C7.23875 5 5 7.23875 5 10V30C5 32.7612 7.23875 35 10 35H30C32.7612 35 35 32.7612 35 30V10C35 7.23875 32.7612 5 30 5ZM15 29.375H11.875V16.875H15V29.375ZM15.0181 14.3806C14.6137 14.7931 14.0863 15 13.4375 15C12.7962 15 12.2719 14.7869 11.8631 14.3606C11.4544 13.9344 11.25 13.4113 11.25 12.7925C11.25 12.155 11.4544 11.635 11.8631 11.2312C12.2719 10.8269 12.7962 10.625 13.4375 10.625C14.0863 10.625 14.6137 10.8269 15.0181 11.2306C15.4225 11.6344 15.625 12.155 15.625 12.7925C15.625 13.4388 15.4225 13.9681 15.0181 14.3806ZM29.375 29.375H26.25V22.4294C26.25 20.4925 25.1338 19.375 23.75 19.375C23.0831 19.375 22.3288 19.78 21.8969 20.2931C21.465 20.8063 21.25 21.4569 21.25 22.2463V29.375H18.125V16.875H21.25V18.8525H21.2987C22.2188 17.3306 23.5569 16.575 25.315 16.57C27.8125 16.5625 29.375 18.4375 29.375 21.7213V29.375Z" fill="url(#paint0_linear_27_390)"/>
<defs>
<linearGradient id="paint0_linear_27_390" x1="5" y1="19.9999" x2="35" y2="19.9999" gradientUnits="userSpaceOnUse">
<stop stop-color="#8693D4"/>
<stop offset="1" stop-color="#B1BBED"/>
</linearGradient>
</defs>
</svg>
