<svg width="40" height="40" viewBox="0 0 40 40" fill="none" xmlns="http://www.w3.org/2000/svg">
<path d="M33.3334 6.66675H6.66671C4.83337 6.66675 3.35004 8.16675 3.35004 10.0001L3.33337 30.0001C3.33337 31.8334 4.83337 33.3334 6.66671 33.3334H33.3334C35.1667 33.3334 36.6667 31.8334 36.6667 30.0001V10.0001C36.6667 8.16675 35.1667 6.66675 33.3334 6.66675ZM32.6667 13.7501L20.8834 21.1167C20.35 21.4501 19.65 21.4501 19.1167 21.1167L7.33337 13.7501C6.91671 13.4834 6.66671 13.0334 6.66671 12.5501C6.66671 11.4334 7.88337 10.7667 8.83337 11.3501L20 18.3334L31.1667 11.3501C32.1167 10.7667 33.3334 11.4334 33.3334 12.5501C33.3334 13.0334 33.0834 13.4834 32.6667 13.7501Z" fill="url(#paint0_linear_27_382)"/>
<defs>
<linearGradient id="paint0_linear_27_382" x1="3.33337" y1="20" x2="36.6667" y2="20" gradientUnits="userSpaceOnUse">
<stop stop-color="#8693D4"/>
<stop offset="1" stop-color="#B1BBED"/>
</linearGradient>
</defs>
</svg>
