<svg width="28" height="26" viewBox="0 0 28 26" fill="none" xmlns="http://www.w3.org/2000/svg">
<g clip-path="url(#clip0_118_3)" filter="url(#filter0_d_118_3)">
<g filter="url(#filter1_d_118_3)">
<path d="M4.9075 12.8678V15.6708C4.9075 16.399 5.3075 17.0773 5.9475 17.4264L10.9475 20.1496C11.5475 20.4788 12.2675 20.4788 12.8675 20.1496L17.8675 17.4264C18.5075 17.0773 18.9075 16.399 18.9075 15.6708V12.8678L12.8675 16.1596C12.2675 16.4888 11.5475 16.4888 10.9475 16.1596L4.9075 12.8678ZM10.9475 3.23189L2.5175 7.82042C1.8275 8.19948 1.8275 9.19698 2.5175 9.57603L10.9475 14.1646C11.5475 14.4937 12.2675 14.4937 12.8675 14.1646L20.9075 9.78551V15.6808C20.9075 16.2294 21.3575 16.6783 21.9075 16.6783C22.4575 16.6783 22.9075 16.2294 22.9075 15.6808V9.28676C22.9075 8.91768 22.7075 8.5885 22.3875 8.40895L12.8675 3.23189C12.2675 2.91269 11.5475 2.91269 10.9475 3.23189V3.23189Z" fill="url(#paint0_linear_118_3)"/>
</g>
</g>
<defs>
<filter id="filter0_d_118_3" x="-1" y="-1" width="30" height="29.9401" filterUnits="userSpaceOnUse" color-interpolation-filters="sRGB">
<feFlood flood-opacity="0" result="BackgroundImageFix"/>
<feColorMatrix in="SourceAlpha" type="matrix" values="0 0 0 0 0 0 0 0 0 0 0 0 0 0 0 0 0 0 127 0" result="hardAlpha"/>
<feOffset dx="2" dy="2"/>
<feGaussianBlur stdDeviation="1.5"/>
<feComposite in2="hardAlpha" operator="out"/>
<feColorMatrix type="matrix" values="0 0 0 0 0 0 0 0 0 0 0 0 0 0 0 0 0 0 0.1 0"/>
<feBlend mode="normal" in2="BackgroundImageFix" result="effect1_dropShadow_118_3"/>
<feBlend mode="normal" in="SourceGraphic" in2="effect1_dropShadow_118_3" result="shape"/>
</filter>
<filter id="filter1_d_118_3" x="1" y="1.99249" width="26.9075" height="23.404" filterUnits="userSpaceOnUse" color-interpolation-filters="sRGB">
<feFlood flood-opacity="0" result="BackgroundImageFix"/>
<feColorMatrix in="SourceAlpha" type="matrix" values="0 0 0 0 0 0 0 0 0 0 0 0 0 0 0 0 0 0 127 0" result="hardAlpha"/>
<feOffset dx="2" dy="2"/>
<feGaussianBlur stdDeviation="1.5"/>
<feComposite in2="hardAlpha" operator="out"/>
<feColorMatrix type="matrix" values="0 0 0 0 0 0 0 0 0 0 0 0 0 0 0 0 0 0 0.1 0"/>
<feBlend mode="normal" in2="BackgroundImageFix" result="effect1_dropShadow_118_3"/>
<feBlend mode="normal" in="SourceGraphic" in2="effect1_dropShadow_118_3" result="shape"/>
</filter>
<linearGradient id="paint0_linear_118_3" x1="12.4537" y1="2.99249" x2="12.4537" y2="20.3965" gradientUnits="userSpaceOnUse">
<stop stop-color="#4C5DAA"/>
<stop offset="1" stop-color="#C8D0FA"/>
</linearGradient>
<clipPath id="clip0_118_3">
<rect width="24" height="23.9402" fill="white"/>
</clipPath>
</defs>
</svg>
